<svg xmlns="http://www.w3.org/2000/svg" width="128" height="56" viewBox="0 0 33.867 14.817"><g data-name="&lt;Group&gt;"><path data-name="&lt;Path&gt;" d="M8.09 38.88a9.75 9.75 0 0 1 0-13.79l18-18a9.751 9.751 0 0 1 13.82 13.76l-18 18a9.75 9.75 0 0 1-13.82.03Z" style="fill:#00b8f0" transform="scale(.70705) rotate(45 39.037 16.806)"/><path data-name="&lt;Path&gt;" d="m12.33 29.34 18-18A9.78 9.78 0 0 1 41.7 9.52a9.86 9.86 0 0 0-1.79-2.46 9.75 9.75 0 0 0-13.79 0l-18 18a9.75 9.75 0 0 0 0 13.79 9.86 9.86 0 0 0 2.46 1.79 9.75 9.75 0 0 1 1.75-11.3z" style="fill:#4acfff" transform="scale(.70705) rotate(45 39.037 16.806)"/><path data-name="&lt;Path&gt;" d="m26.12 7.06-9 9 13.77 13.81 9-9A9.751 9.751 0 1 0 26.12 7.06Z" style="fill:#00b8f0" transform="scale(.70705) rotate(45 39.037 16.806)"/><path data-name="&lt;Path&gt;" d="M41.7 9.52a9.86 9.86 0 0 0-1.79-2.46 9.75 9.75 0 0 0-13.79 0l-9 9 4.24 4.24 9-9A9.78 9.78 0 0 1 41.7 9.52Z" style="fill:#4acfff" transform="scale(.70705) rotate(45 39.037 16.806)"/><path data-name="&lt;Path&gt;" class="cls-6" d="M39.91 7.06a9.75 9.75 0 0 1 0 13.79l-18 18A9.751 9.751 0 0 1 8.09 25.09l18-18a9.75 9.75 0 0 1 13.82-.03Z" style="fill:none;stroke:#45413c;stroke-linecap:round;stroke-linejoin:round" transform="scale(.70705) rotate(45 39.037 16.806)"/><path data-name="&lt;Path&gt;" class="cls-6" d="m26.12 7.06-9 9 13.77 13.81 9-9A9.751 9.751 0 1 0 26.12 7.06Z" style="fill:none;stroke:#45413c;stroke-linecap:round;stroke-linejoin:round" transform="scale(.70705) rotate(45 39.037 16.806)"/></g></svg>